<?xml version="1.0" encoding="UTF-8"?>
<svg xmlns="http://www.w3.org/2000/svg" xmlns:xlink="http://www.w3.org/1999/xlink" width="30px" height="30px" viewBox="0 0 30 30" version="1.1">
<g id="surface1">
<path style=" stroke:none;fill-rule:nonzero;fill:rgb(93.333334%,55.686277%,43.921569%);fill-opacity:1;" d="M 9.359375 -0.0234375 C 9.496094 -0.0234375 9.632812 -0.0234375 9.769531 -0.0234375 C 10.136719 -0.0273438 10.503906 -0.0273438 10.871094 -0.0273438 C 11.222656 -0.0234375 11.570312 -0.0273438 11.917969 -0.0273438 C 12.648438 -0.0273438 13.378906 -0.0273438 14.109375 -0.0273438 C 14.777344 -0.0273438 15.441406 -0.0273438 16.109375 -0.0273438 C 16.796875 -0.0273438 17.480469 -0.03125 18.167969 -0.0273438 C 18.554688 -0.0273438 18.9375 -0.0273438 19.324219 -0.03125 C 19.683594 -0.03125 20.046875 -0.03125 20.410156 -0.03125 C 20.539062 -0.03125 20.671875 -0.03125 20.804688 -0.03125 C 22.925781 -0.0390625 24.925781 0.535156 26.601562 1.875 C 26.636719 1.902344 26.671875 1.929688 26.707031 1.957031 C 28.101562 3.085938 29.132812 4.601562 29.664062 6.316406 C 29.683594 6.382812 29.683594 6.382812 29.703125 6.449219 C 29.988281 7.410156 30.027344 8.363281 30.023438 9.359375 C 30.023438 9.496094 30.023438 9.632812 30.023438 9.769531 C 30.027344 10.136719 30.027344 10.503906 30.027344 10.871094 C 30.023438 11.222656 30.027344 11.570312 30.027344 11.917969 C 30.027344 12.648438 30.027344 13.378906 30.027344 14.109375 C 30.027344 14.777344 30.027344 15.441406 30.027344 16.109375 C 30.027344 16.796875 30.03125 17.480469 30.027344 18.167969 C 30.027344 18.554688 30.027344 18.9375 30.03125 19.324219 C 30.03125 19.683594 30.03125 20.046875 30.03125 20.410156 C 30.03125 20.539062 30.03125 20.671875 30.03125 20.804688 C 30.039062 23.144531 29.328125 25.335938 27.710938 27.0625 C 27.617188 27.164062 27.53125 27.265625 27.449219 27.375 C 27.261719 27.589844 27.054688 27.769531 26.835938 27.949219 C 26.78125 27.996094 26.726562 28.039062 26.667969 28.085938 C 24.921875 29.5 22.824219 30.039062 20.613281 30.03125 C 20.476562 30.03125 20.339844 30.03125 20.203125 30.03125 C 19.835938 30.03125 19.46875 30.03125 19.101562 30.03125 C 18.757812 30.03125 18.410156 30.03125 18.0625 30.03125 C 17.332031 30.03125 16.601562 30.03125 15.871094 30.03125 C 15.25 30.027344 14.625 30.03125 14.003906 30.03125 C 13.277344 30.03125 12.546875 30.03125 11.820312 30.03125 C 11.4375 30.03125 11.054688 30.03125 10.671875 30.03125 C 10.308594 30.03125 9.949219 30.03125 9.585938 30.03125 C 9.457031 30.03125 9.324219 30.03125 9.191406 30.03125 C 7.070312 30.039062 5.074219 29.464844 3.398438 28.125 C 3.363281 28.097656 3.328125 28.070312 3.292969 28.042969 C 1.5 26.589844 0.292969 24.464844 0.0117188 22.164062 C -0.0117188 21.925781 -0.0078125 21.6875 -0.0078125 21.449219 C -0.0078125 21.390625 -0.0078125 21.332031 -0.0078125 21.273438 C -0.0078125 21.085938 -0.0078125 20.894531 -0.0078125 20.703125 C -0.0078125 20.566406 -0.0117188 20.429688 -0.0117188 20.292969 C -0.0117188 19.921875 -0.0117188 19.550781 -0.0117188 19.179688 C -0.0117188 18.945312 -0.0117188 18.714844 -0.0117188 18.480469 C -0.0117188 17.835938 -0.015625 17.191406 -0.015625 16.546875 C -0.015625 16.503906 -0.015625 16.464844 -0.015625 16.421875 C -0.015625 16.378906 -0.015625 16.339844 -0.015625 16.296875 C -0.015625 16.214844 -0.015625 16.128906 -0.015625 16.046875 C -0.015625 16.003906 -0.015625 15.960938 -0.015625 15.917969 C -0.015625 15.25 -0.015625 14.578125 -0.015625 13.90625 C -0.0195312 13.214844 -0.0195312 12.523438 -0.0195312 11.832031 C -0.0195312 11.445312 -0.0195312 11.058594 -0.0195312 10.671875 C -0.0195312 10.304688 -0.0195312 9.941406 -0.0195312 9.574219 C -0.0195312 9.441406 -0.0195312 9.308594 -0.0234375 9.175781 C -0.0273438 8.210938 0.0351562 7.277344 0.320312 6.347656 C 0.34375 6.273438 0.34375 6.273438 0.367188 6.203125 C 0.75 5.015625 1.367188 3.90625 2.222656 2.996094 C 2.335938 2.878906 2.4375 2.757812 2.542969 2.632812 C 2.796875 2.34375 3.09375 2.109375 3.398438 1.875 C 3.476562 1.816406 3.476562 1.816406 3.554688 1.753906 C 4.386719 1.128906 5.324219 0.644531 6.316406 0.335938 C 6.359375 0.324219 6.40625 0.308594 6.449219 0.296875 C 7.410156 0.0117188 8.363281 -0.0273438 9.359375 -0.0234375 Z M 9.359375 -0.0234375 "/>
<path style=" stroke:none;fill-rule:nonzero;fill:rgb(99.607843%,99.607843%,99.607843%);fill-opacity:1;" d="M 18.339844 8.261719 C 18.402344 8.292969 18.402344 8.292969 18.46875 8.324219 C 19.003906 8.601562 19.46875 8.914062 19.921875 9.316406 C 19.964844 9.351562 20.007812 9.386719 20.050781 9.425781 C 21.230469 10.414062 22.035156 11.929688 22.382812 13.417969 C 22.402344 13.5 22.402344 13.5 22.421875 13.585938 C 22.785156 15.460938 22.351562 17.539062 21.304688 19.128906 C 20.972656 19.609375 20.578125 20.039062 20.15625 20.449219 C 20.128906 20.480469 20.097656 20.511719 20.066406 20.542969 C 19.273438 21.378906 18.046875 21.996094 16.933594 22.265625 C 16.894531 22.277344 16.855469 22.285156 16.816406 22.296875 C 15.121094 22.71875 13.300781 22.566406 11.734375 21.773438 C 11.253906 21.539062 10.851562 21.59375 10.355469 21.757812 C 10.269531 21.785156 10.183594 21.808594 10.097656 21.835938 C 10.03125 21.855469 10.03125 21.855469 9.96875 21.878906 C 8.960938 22.179688 8.960938 22.179688 8.460938 22.023438 C 8.203125 21.882812 8.039062 21.726562 7.921875 21.449219 C 7.890625 21.109375 7.921875 20.824219 8.011719 20.496094 C 8.035156 20.417969 8.054688 20.339844 8.078125 20.257812 C 8.109375 20.136719 8.144531 20.011719 8.179688 19.890625 C 8.210938 19.769531 8.242188 19.652344 8.277344 19.53125 C 8.304688 19.421875 8.304688 19.421875 8.335938 19.316406 C 8.398438 18.996094 8.429688 18.683594 8.285156 18.382812 C 8.265625 18.339844 8.246094 18.296875 8.226562 18.253906 C 8.207031 18.207031 8.183594 18.164062 8.164062 18.117188 C 7.988281 17.726562 7.847656 17.34375 7.742188 16.933594 C 7.730469 16.890625 7.71875 16.847656 7.707031 16.800781 C 7.675781 16.671875 7.644531 16.539062 7.617188 16.40625 C 7.605469 16.355469 7.59375 16.308594 7.585938 16.257812 C 7.367188 15.1875 7.449219 14.054688 7.734375 13.007812 C 7.746094 12.96875 7.753906 12.929688 7.765625 12.890625 C 8.082031 11.703125 8.773438 10.667969 9.609375 9.785156 C 9.675781 9.710938 9.675781 9.710938 9.746094 9.640625 C 11.925781 7.351562 15.554688 6.863281 18.339844 8.261719 Z M 18.339844 8.261719 "/>
<path style=" stroke:none;fill-rule:nonzero;fill:rgb(93.333334%,56.078434%,44.705883%);fill-opacity:1;" d="M 12.089844 13.292969 C 12.140625 13.292969 12.195312 13.289062 12.25 13.289062 C 12.304688 13.289062 12.363281 13.289062 12.425781 13.289062 C 12.515625 13.289062 12.515625 13.289062 12.609375 13.289062 C 12.8125 13.285156 13.015625 13.285156 13.21875 13.285156 C 13.289062 13.285156 13.359375 13.285156 13.429688 13.285156 C 13.796875 13.28125 14.164062 13.28125 14.527344 13.28125 C 14.90625 13.277344 15.285156 13.277344 15.664062 13.273438 C 15.957031 13.273438 16.25 13.269531 16.539062 13.269531 C 16.679688 13.269531 16.820312 13.269531 16.957031 13.269531 C 17.152344 13.265625 17.347656 13.265625 17.546875 13.265625 C 17.601562 13.265625 17.660156 13.265625 17.71875 13.265625 C 17.980469 13.265625 18.164062 13.273438 18.375 13.4375 C 18.550781 13.632812 18.582031 13.738281 18.574219 14.003906 C 18.402344 14.324219 18.402344 14.324219 18.222656 14.414062 C 18.136719 14.421875 18.050781 14.421875 17.964844 14.421875 C 17.910156 14.421875 17.859375 14.421875 17.800781 14.425781 C 17.742188 14.425781 17.683594 14.425781 17.621094 14.425781 C 17.558594 14.425781 17.496094 14.425781 17.433594 14.425781 C 17.226562 14.425781 17.019531 14.425781 16.8125 14.429688 C 16.707031 14.429688 16.707031 14.429688 16.597656 14.429688 C 16.222656 14.429688 15.851562 14.429688 15.476562 14.429688 C 15.089844 14.433594 14.703125 14.433594 14.316406 14.4375 C 14.019531 14.4375 13.722656 14.4375 13.425781 14.4375 C 13.285156 14.4375 13.140625 14.441406 13 14.441406 C 12.800781 14.441406 12.601562 14.441406 12.402344 14.441406 C 12.339844 14.441406 12.28125 14.441406 12.222656 14.445312 C 11.964844 14.441406 11.820312 14.4375 11.59375 14.300781 C 11.449219 14.140625 11.425781 14.042969 11.410156 13.832031 C 11.4375 13.609375 11.5625 13.507812 11.71875 13.359375 C 11.855469 13.292969 11.9375 13.292969 12.089844 13.292969 Z M 12.089844 13.292969 "/>
<path style=" stroke:none;fill-rule:nonzero;fill:rgb(93.333334%,55.29412%,44.313726%);fill-opacity:1;" d="M 12.210938 15.917969 C 12.257812 15.917969 12.300781 15.917969 12.347656 15.917969 C 12.492188 15.917969 12.636719 15.917969 12.785156 15.914062 C 12.886719 15.914062 12.988281 15.914062 13.089844 15.914062 C 13.300781 15.914062 13.515625 15.914062 13.726562 15.914062 C 14 15.914062 14.273438 15.910156 14.546875 15.90625 C 14.753906 15.90625 14.964844 15.90625 15.175781 15.90625 C 15.273438 15.90625 15.375 15.902344 15.476562 15.902344 C 15.617188 15.902344 15.757812 15.902344 15.898438 15.902344 C 15.960938 15.902344 15.960938 15.902344 16.023438 15.898438 C 16.246094 15.902344 16.339844 15.933594 16.519531 16.074219 C 16.671875 16.273438 16.703125 16.390625 16.699219 16.640625 C 16.527344 16.972656 16.527344 16.972656 16.289062 17.050781 C 16.144531 17.058594 16.003906 17.0625 15.859375 17.0625 C 15.816406 17.0625 15.773438 17.0625 15.726562 17.0625 C 15.582031 17.066406 15.4375 17.066406 15.296875 17.066406 C 15.246094 17.066406 15.195312 17.066406 15.144531 17.066406 C 14.886719 17.070312 14.625 17.070312 14.363281 17.070312 C 14.148438 17.070312 13.933594 17.074219 13.71875 17.074219 C 13.457031 17.078125 13.195312 17.082031 12.9375 17.082031 C 12.835938 17.082031 12.738281 17.082031 12.636719 17.082031 C 12.5 17.085938 12.359375 17.085938 12.222656 17.085938 C 12.160156 17.085938 12.160156 17.085938 12.097656 17.085938 C 11.875 17.085938 11.78125 17.054688 11.605469 16.914062 C 11.453125 16.71875 11.425781 16.597656 11.425781 16.347656 C 11.597656 15.964844 11.820312 15.917969 12.210938 15.917969 Z M 12.210938 15.917969 "/>
</g>
</svg>
